<svg width="20" height="17" viewBox="0 0 20 17" fill="none" xmlns="http://www.w3.org/2000/svg">
<path d="M18.25 9.18172H1.75C1.336 9.18172 1 8.87627 1 8.49992C1 8.12356 1.336 7.81812 1.75 7.81812H18.25C18.664 7.81812 19 8.12356 19 8.49992C19 8.87627 18.664 9.18172 18.25 9.18172Z" fill="#B4B4B5" stroke="#B4B4B5" stroke-width="2"/>
<path d="M18.25 2.36361H1.75C1.336 2.36361 1 2.05816 1 1.6818C1 1.30545 1.336 1 1.75 1H18.25C18.664 1 19 1.30545 19 1.6818C19 2.05816 18.664 2.36361 18.25 2.36361Z" fill="#B4B4B5" stroke="#B4B4B5" stroke-width="2"/>
<path d="M18.25 15.9998H1.75C1.336 15.9998 1 15.6944 1 15.318C1 14.9417 1.336 14.6362 1.75 14.6362H18.25C18.664 14.6362 19 14.9417 19 15.318C19 15.6944 18.664 15.9998 18.25 15.9998Z" fill="#B4B4B5" stroke="#B4B4B5" stroke-width="2"/>
</svg>
