<svg width="18" height="17" viewBox="0 0 18 17" fill="none" xmlns="http://www.w3.org/2000/svg">
<path d="M16.3333 9.12306H1.66667C1.29867 9.12306 1 8.89561 1 8.61536C1 8.33511 1.29867 8.10767 1.66667 8.10767H16.3333C16.7013 8.10767 17 8.33511 17 8.61536C17 8.89561 16.7013 9.12306 16.3333 9.12306Z" fill="#171719" stroke="#171719"/>
<path d="M16.3333 2.26924H1.66667C1.29867 2.26924 1 1.98493 1 1.63462C1 1.28431 1.29867 1 1.66667 1H16.3333C16.7013 1 17 1.28431 17 1.63462C17 1.98493 16.7013 2.26924 16.3333 2.26924Z" fill="#171719" stroke="#171719"/>
<path d="M16.3333 15.977H1.66667C1.29867 15.977 1 15.6927 1 15.3424C1 14.9921 1.29867 14.7078 1.66667 14.7078H16.3333C16.7013 14.7078 17 14.9921 17 15.3424C17 15.6927 16.7013 15.977 16.3333 15.977Z" fill="#171719" stroke="#171719"/>
</svg>
