<svg width="17" height="13" viewBox="0 0 17 13" fill="none" xmlns="http://www.w3.org/2000/svg">
<path d="M15.375 6.90766H1.625C1.28 6.90766 1 6.74224 1 6.53842C1 6.33461 1.28 6.16919 1.625 6.16919H15.375C15.72 6.16919 16 6.33461 16 6.53842C16 6.74224 15.72 6.90766 15.375 6.90766Z" fill="#171719" stroke="#171719"/>
<path d="M15.375 1.92308H1.625C1.28 1.92308 1 1.71631 1 1.46154C1 1.20677 1.28 1 1.625 1H15.375C15.72 1 16 1.20677 16 1.46154C16 1.71631 15.72 1.92308 15.375 1.92308Z" fill="#171719" stroke="#171719"/>
<path d="M15.375 11.8923H1.625C1.28 11.8923 1 11.6856 1 11.4308C1 11.176 1.28 10.9692 1.625 10.9692H15.375C15.72 10.9692 16 11.176 16 11.4308C16 11.6856 15.72 11.8923 15.375 11.8923Z" fill="#171719" stroke="#171719"/>
</svg>
