<svg width="62" height="62" viewBox="0 0 62 62" fill="none" xmlns="http://www.w3.org/2000/svg">
<g clip-path="url(#clip0_1123_341)">
<path d="M27.2188 40.0795L31.0467 42.3842L34.8253 40.0536L31.0476 38.0657L27.2188 40.0795Z" fill="#737376"/>
<path d="M26.1336 39.4257L26.8848 35.0407L18.4722 28.3975L17.1211 33.9964L26.1336 39.4257Z" fill="#737376"/>
<path d="M25.5194 23.3308L24.5134 26.3449L19.2637 27.6699L23.4505 30.8757L28.4696 30.1444L31.0461 24.9337L33.6217 30.146L38.6416 30.8757L42.8256 27.6699L37.5751 26.3451C37.5751 26.3451 34.0034 15.1626 32.1604 15.1626C29.9425 15.1626 28.476 15.1626 27.1356 15.1626C25.1139 15.1626 25.6706 17.5693 22.6562 17.5693C19.6429 17.5693 19.0977 21.1915 19.0977 21.1915C19.0977 21.1915 20.2291 21.1915 23.1163 21.1915C26.0072 21.1914 25.5194 23.3308 25.5194 23.3308ZM26.9879 16.9632C27.348 16.9632 27.6379 17.2531 27.6379 17.6113C27.6379 17.9691 27.348 18.2608 26.9879 18.2608C26.6302 18.2608 26.3394 17.9691 26.3394 17.6113C26.3394 17.2532 26.6319 16.9632 26.9879 16.9632Z" fill="#737376"/>
<path d="M35.9465 39.3591L44.9699 33.7909L43.6226 28.3958L35.207 35.0408L35.9465 39.3591Z" fill="#737376"/>
<path d="M44.5273 27.8145L45.8091 33.2821H55.8049C59.9057 33.2821 61.9987 27.8145 61.9987 27.8145H44.5273V27.8145Z" fill="#737376"/>
<path d="M37.1797 40.1168H49.311C53.4119 40.1168 56.4874 34.6489 56.4874 34.6489H45.5948L37.1797 40.1168Z" fill="#737376"/>
<path d="M30.9989 44.117L26.7706 41.3696H12.4297C12.4297 41.3696 16.6586 46.8376 20.7591 46.8376H26.8119H35.1857H41.2383C45.3396 46.8376 49.5683 41.3696 49.5683 41.3696H35.2271L30.9989 44.117Z" fill="#737376"/>
<path d="M16.1897 33.2818L17.4712 27.8142H0C0 27.8142 2.0931 33.2818 6.19425 33.2818H16.1897Z" fill="#737376"/>
<path d="M24.8195 40.1168L16.4045 34.6489H5.51172C5.51172 34.6489 8.58726 40.1168 12.6882 40.1168H24.8195Z" fill="#737376"/>
</g>
<g clip-path="url(#clip1_1123_341)">
<path d="M54 1H8C4.13401 1 1 4.13401 1 8V54C1 57.866 4.13401 61 8 61H54C57.866 61 61 57.866 61 54V8C61 4.13401 57.866 1 54 1Z" fill="#286FFA"/>
<path d="M37.55 22.1149C34.865 23.8281 32.3599 25.8083 30.0729 28.025C27.9215 30.2575 26.0166 32.7145 24.391 35.3546C24.391 35.3546 31.009 29.1041 37.55 25.7941C41.6208 23.7756 46.0299 22.5281 50.5548 22.1149C50.5548 22.1149 50.9798 22.2007 50.5548 23.1447C50.3368 23.6287 48.2318 26.0098 46.1798 29.1178C44.2708 32.0098 42.4049 35.6481 42.4049 35.6481C42.4049 35.6481 43.9779 41.748 44.6049 45.131C45.2319 48.514 45.3751 49.8987 43.8681 48.8307C42.4961 47.8557 33.1998 41.8499 31.5128 40.7599C31.3948 40.6839 31.883 40.9831 31.308 40.6281C30.733 40.2731 32.9919 37.7219 35.8549 34.5709C38.0304 32.2617 40.3342 30.0767 42.755 28.026C38.8962 29.8778 35.3463 32.3138 32.2309 35.2487C29.054 38.1418 26.0824 41.2524 23.3371 44.5577C21.1211 47.2577 19.872 49.371 19.245 49.191C18.618 49.011 18.9148 45.9908 19.3668 42.7208C21.0556 31.0984 26.0091 20.1942 33.651 11.276C33.651 11.276 33.99 10.8957 34.286 10.9347C34.582 10.9737 34.858 10.9229 35.672 13.7179C36.486 16.5129 37.55 22.1149 37.55 22.1149Z" fill="white"/>
<path d="M21.7224 26.5869C21.7224 26.5869 20.7584 29.3311 20.2004 31.4731C19.8774 32.6818 19.6405 33.9121 19.4915 35.1543C18.2911 34.5128 17.0582 33.9339 15.7976 33.4209C13.8366 32.6339 11.6484 32.0083 11.6484 32.0083C13.184 30.7244 14.8335 29.5832 16.5764 28.5991C18.2127 27.7416 19.9384 27.0667 21.7224 26.5869Z" fill="white"/>
</g>
<defs>
<clipPath id="clip0_1123_341">
<rect width="62" height="62" fill="white"/>
</clipPath>
<clipPath id="clip1_1123_341">
<rect width="60" height="60" fill="white" transform="translate(1 1)"/>
</clipPath>
</defs>
</svg>
